<?xml version="1.0" encoding="UTF-8" standalone="no"?>
<svg
   xmlns:dc="http://purl.org/dc/elements/1.1/"
   xmlns:cc="http://creativecommons.org/ns#"
   xmlns:rdf="http://www.w3.org/1999/02/22-rdf-syntax-ns#"
   xmlns:svg="http://www.w3.org/2000/svg"
   xmlns="http://www.w3.org/2000/svg"
   xmlns:sodipodi="http://sodipodi.sourceforge.net/DTD/sodipodi-0.dtd"
   xmlns:inkscape="http://www.inkscape.org/namespaces/inkscape"
   width="210mm"
   height="297mm"
   viewBox="0 0 210 297"
   version="1.1"
   id="svg32"
   inkscape:version="1.0.1 (3bc2e813f5, 2020-09-07)"
   sodipodi:docname="my-initals-favicon.svg">
  <defs
     id="defs26" />
  <sodipodi:namedview
     id="base"
     pagecolor="#ffffff"
     bordercolor="#666666"
     borderopacity="1.0"
     inkscape:pageopacity="0.0"
     inkscape:pageshadow="2"
     inkscape:zoom="0.35"
     inkscape:cx="400"
     inkscape:cy="560"
     inkscape:document-units="mm"
     inkscape:current-layer="layer1"
     inkscape:document-rotation="0"
     showgrid="false"
     inkscape:window-width="1267"
     inkscape:window-height="728"
     inkscape:window-x="83"
     inkscape:window-y="0"
     inkscape:window-maximized="0" />
  <metadata
     id="metadata29">
    <rdf:RDF>
      <cc:Work
         rdf:about="">
        <dc:format>image/svg+xml</dc:format>
        <dc:type
           rdf:resource="http://purl.org/dc/dcmitype/StillImage" />
        <dc:title></dc:title>
      </cc:Work>
    </rdf:RDF>
  </metadata>
  <g
     inkscape:label="Layer 1"
     inkscape:groupmode="layer"
     id="layer1">
    <path
       id="path34"
       d="m 61.732117,129.50979 c -4.425744,3.75339 -8.806257,7.56202 -13.161206,11.39772 -0.987139,0.84435 -1.98011,1.68193 -2.961423,2.53305 -2.137775,1.85413 -4.202393,3.79256 -6.495692,5.45853 -0.396405,0.28797 -1.645346,1.06332 -1.221063,0.81828 3.001272,-1.73336 5.969635,-3.52309 8.95445,-5.28463 0.100867,0.0252 0.241487,0.15976 0.302601,0.0756 0.177588,-0.24442 0.185171,-0.57524 0.270875,-0.86495 0.146801,-0.49625 0.270894,-0.99924 0.426588,-1.49278 0.672758,-2.13256 1.371502,-4.24173 1.989521,-6.39301 2.146295,-8.28832 3.822808,-16.68842 4.908166,-25.17965 1.108668,-9.46177 1.179806,-19.004093 1.22414,-28.518255 0.09816,-9.65303 -0.280178,-19.304815 -0.687128,-28.947557 -0.154157,-3.396499 -0.28275,-6.794611 -0.371647,-10.19351 -0.04689,-1.792851 -0.131739,-3.567247 0.07843,-5.34898 -3.057424,1.978662 -6.180037,3.860059 -9.17227,5.935988 -0.120436,0.08355 -0.05437,0.297616 -0.0172,0.439406 0.214267,0.817314 0.527973,1.605579 0.76586,2.416334 1.107818,3.775607 2.119405,7.585538 3.14207,11.384801 2.917124,10.891324 6.28337,21.651508 9.472829,32.464891 3.875577,12.595632 7.507833,25.254402 10.872494,37.995082 3.939016,14.03102 6.751772,28.32394 9.483312,42.62614 2.076013,11.65283 3.50539,23.42996 4.072318,35.25575 0.33378,6.96243 0.240247,8.55027 0.21508,15.46344 -0.203057,10.73853 -1.528619,21.49888 -4.587375,31.81944 -0.471413,1.5906 -1.072837,3.13974 -1.609256,4.70961 -1.787515,4.44811 -3.663233,9.06476 -6.849338,12.73258 -1.472282,1.69489 -2.021131,1.96683 -3.766941,3.27318 13.826992,-8.08061 7.147647,-3.60412 3.163384,-3.32962 -2.000485,0.13785 -3.481295,-0.39388 -5.234466,-1.25656 -0.494313,-0.39359 -1.040228,-0.72996 -1.482942,-1.18083 -2.8951,-2.94844 -4.000177,-8.56418 -4.923954,-12.44736 -1.693341,-7.73195 -1.263205,-15.66215 -0.847175,-23.50082 0.615752,-10.00024 1.602066,-19.9708 2.789021,-29.91782 0.869947,-6.51124 1.45284,-13.06735 2.508152,-19.55368 0.565079,-3.47316 1.075174,-5.74425 1.789284,-9.1846 1.971617,-8.00356 4.225862,-15.95298 7.088042,-23.68636 2.25434,-5.49248 4.767583,-10.92346 8.389962,-15.65374 1.326853,-1.42303 1.390462,-1.63296 2.936348,-2.75581 0.470077,-0.34144 1.967685,-1.23616 1.468641,-0.93866 -15.906371,9.48265 -9.643229,4.80896 -6.435616,4.399 0.522435,-0.0668 1.053335,-0.009 1.580004,-0.0135 4.893643,0.67901 7.433233,5.03113 9.647909,8.97422 3.692867,7.29273 5.412198,15.34441 7.219432,23.25765 2.113428,10.07439 3.766002,20.23865 5.514952,30.38096 1.72242,10.06509 3.29149,20.15353 4.73798,30.26139 0.63001,5.82778 1.64697,11.70385 1.40981,17.58562 -0.0917,0.26857 -0.52403,0.9418 -0.275,0.80572 3.19201,-1.74424 6.37814,-3.54607 9.28692,-5.73018 0.26551,-0.19936 -0.39403,-0.53791 -0.54598,-0.83313 -0.30971,-0.60174 -0.56765,-1.22892 -0.83529,-1.85051 -0.74108,-1.72119 -1.57603,-3.85787 -2.25531,-5.56207 -3.66011,-10.24001 -7.13279,-20.54736 -10.15516,-30.99421 -2.15584,-7.98706 -4.08906,-16.05221 -5.367399,-24.23145 -0.677156,-4.33268 -0.814417,-6.13826 -1.264227,-10.42575 -0.473731,-5.44102 -0.708118,-10.93274 -0.24066,-16.38404 0.217488,-2.53623 0.614016,-4.99187 0.981133,-7.50871 1.082495,-6.33113 3.049553,-12.45345 5.930923,-18.18657 1.85502,-3.50808 4.26,-6.52985 7.625,-8.64886 -16.07524,9.84115 -9.3971,4.45935 -5.70588,4.1296 1.41822,-0.12669 2.49101,0.30682 3.73223,0.91188 3.39265,2.29006 4.45092,5.60159 5.30663,9.41305 1.30477,6.71051 -0.43909,13.46996 -1.91768,20.004 -1.56006,6.08449 -3.54267,12.08514 -6.399,17.68861 -1.0713,1.73201 -1.95468,3.62869 -3.38905,5.10912 -0.20161,0.20809 -0.44079,0.37617 -0.66118,0.56426 2.98077,-1.78069 5.96154,-3.56138 8.94231,-5.34207 -0.012,0.071 0.013,0.26579 -0.0361,0.21306 -0.0857,-0.0921 -0.0907,-0.23789 -0.10346,-0.36307 -0.2581,-2.52238 1.5539,-5.06762 2.71348,-7.12871 3.74894,-5.67116 8.60624,-10.45826 14.20848,-14.27124 -2.26529,1.35531 -4.62736,2.56062 -6.79588,4.06592 -0.69196,0.48034 1.53507,-0.70174 2.33401,-0.96864 3.18775,-1.06494 6.18531,-0.94543 9.44473,-0.41079 4.55651,1.22826 8.54012,3.95137 11.42049,7.70785 0.85643,1.11692 1.54175,2.3552 2.31263,3.53281 0.73637,1.58382 1.58853,3.1188 2.20911,4.75147 3.40792,8.96586 4.43622,18.91681 4.60707,28.44021 0.0463,2.58039 -0.0851,5.1609 -0.12764,7.74135 -0.62416,9.88701 -1.9395,19.79583 -4.80582,29.30403 -1.70999,5.67243 -2.40836,6.93813 -4.69343,12.38074 -3.92905,7.84622 -8.77705,15.35669 -15.24817,21.36891 -4.14169,3.84797 -6.92754,5.56988 -11.52896,8.79906 -2.0658,1.17674 -4.00097,2.6203 -6.1974,3.53023 -0.9777,0.40505 3.53234,-2.03687 2.47519,-1.98818 -1.96311,0.0904 -3.63076,1.51577 -5.49837,2.12735 -3.19548,1.0464 -7.25976,1.96512 -10.629893,2.30664 -1.662086,0.16843 -3.33878,0.12708 -5.008171,0.19061 -7.11549,-0.33139 -14.172845,-2.15887 -20.13458,-6.17451 -0.940218,-0.6333 -1.794404,-1.3858 -2.691608,-2.0787 -4.192784,-3.89204 -7.176056,-8.98907 -8.061974,-14.69187 -0.174331,-1.12221 -0.181946,-2.26403 -0.272917,-3.39605 0.01132,-9.09381 4.037113,-17.46999 9.306755,-24.70578 1.437871,-1.97436 3.06713,-3.80196 4.600694,-5.70294 3.56914,-3.65855 6.178532,-6.58587 10.185871,-9.74026 1.741355,-1.37071 3.654359,-2.50841 5.460331,-3.79279 0.76083,-0.54109 -3.222308,1.81852 -2.324449,1.5626 2.351529,-0.67024 4.464552,-2.00884 6.768033,-2.82914 2.422255,-0.8626 4.926433,-1.47507 7.389658,-2.2126 10.02754,-2.2897 20.30699,-3.3563 30.59047,-2.93502 6.48923,0.26585 8.91972,0.72374 15.4109,1.55613 14.94143,2.10905 29.30417,7.07719 44.18691,9.47923 3.26692,0.52727 6.56828,0.81304 9.85242,1.21957 17.20424,1.27251 34.5279,0.56638 51.64284,-1.47773 4.70207,-0.41557 9.10927,-1.96897 13.50818,-3.55229 0,0 8.19364,-6.41247 8.19364,-6.41247 v 0 c -4.4569,1.72306 -8.91616,3.44241 -13.70917,3.99626 -17.2494,2.47852 -34.75607,3.54818 -52.15673,2.15296 -3.24427,-0.40681 -6.5049,-0.69943 -9.73279,-1.22044 -14.82934,-2.39358 -29.10911,-7.37529 -43.94841,-9.7211 -6.21328,-0.86694 -9.15074,-1.42399 -15.38293,-1.72236 -10.35349,-0.49569 -20.68515,0.66718 -30.81795,2.75134 -2.46176,0.69371 -4.96162,1.26416 -7.38526,2.08113 -8.163142,2.7517 -13.279723,6.0448 -21.268137,10.90642 -1.896531,1.1542 -3.68115,2.49321 -5.402866,3.89489 -3.796696,3.09095 -6.610852,6.28383 -9.990237,9.82991 -1.545305,1.94113 -3.183808,3.81159 -4.635918,5.82338 -4.618382,6.39846 -8.505741,13.78793 -9.547905,21.71259 -0.171371,1.30311 -0.113663,2.6262 -0.170495,3.9393 0.11081,1.18175 0.133024,2.37519 0.332428,3.54526 1.007496,5.91178 4.143269,11.19762 8.436782,15.30401 0.939122,0.71609 1.836801,1.49011 2.81737,2.14831 6.143998,4.12414 13.378823,6.03573 20.699944,6.49555 1.707846,-0.0381 3.422095,0.0382 5.12354,-0.11433 3.203398,-0.28723 7.852667,-1.27347 10.878942,-2.23216 9.403202,-2.97876 17.673962,-8.57755 26.177112,-13.43287 4.5902,-3.30165 7.40132,-5.096 11.5477,-9.01561 6.47729,-6.12304 11.21038,-13.77444 15.13074,-21.70764 0.84013,-2.04986 1.76016,-4.06877 2.52039,-6.1496 4.19045,-11.46972 5.81164,-23.62796 6.58962,-35.75652 0.035,-2.60176 0.16165,-5.2039 0.10484,-7.80526 -0.20443,-9.36092 -1.28121,-20.10459 -4.30879,-29.00655 -0.58081,-1.70774 -1.39219,-3.32817 -2.08828,-4.99226 -0.75496,-1.25465 -1.41602,-2.57083 -2.26489,-3.76395 -2.85932,-4.01887 -6.89343,-6.98946 -11.58534,-8.44821 -1.78803,-0.35174 -3.02193,-0.67697 -4.86206,-0.7026 -7.14888,-0.0996 -13.13582,4.72666 -18.94672,8.14483 -5.49965,4.02667 -10.27111,8.96692 -13.99023,14.69893 -1.20776,2.18804 -4.102383,6.58838 -2.31527,9.20861 0.1966,0.28825 0.50469,0.48193 0.75703,0.72289 3.36221,-1.98022 6.77128,-3.88294 10.08663,-5.94065 0.24358,-0.15118 0.37587,-0.43345 0.55005,-0.66115 1.23081,-1.60903 2.12628,-3.43409 3.06762,-5.21839 2.60591,-5.68325 4.47062,-11.6757 5.94065,-17.74728 1.45859,-6.71628 3.39093,-13.71716 2.05232,-20.60141 -0.97898,-4.21674 -2.03697,-7.57092 -5.62144,-10.29462 -0.44791,-0.27442 -0.86869,-0.59905 -1.34373,-0.82325 -5.65793,-2.67032 -12.2661,3.6335 -16.16904,5.83173 -3.148172,2.37872 -5.404555,5.52763 -7.150201,9.0579 -2.713268,5.83848 -4.560245,12.00915 -5.566291,18.37546 -1.152306,8.12702 -1.57344,15.83217 -0.382397,24.01038 1.471983,11.70642 3.708664,23.29644 7.032231,34.62941 2.973181,10.53303 6.192728,20.99598 9.561648,31.40883 0.88309,2.5873 1.71158,5.24628 2.7733,7.77017 0.22677,0.53909 0.21297,1.77296 0.76474,1.5791 10.2819,-3.61255 9.94644,-1.73594 10.12183,-6.30602 -0.3078,-5.84091 -1.19924,-11.64344 -2.04749,-17.42403 -1.54851,-10.07349 -3.26073,-20.12122 -4.94602,-30.17232 -1.64923,-10.19819 -3.32843,-20.3947 -5.37401,-30.52212 -1.80124,-8.04179 -3.42495,-16.22486 -7.055516,-23.68844 -2.30338,-4.22002 -4.893445,-8.93053 -9.970328,-10.05865 -0.574717,-0.0711 -1.145058,-0.21079 -1.724154,-0.21338 -4.434203,-0.0198 -11.172884,5.45246 -12.533929,6.23564 -1.661547,0.95611 -2.939558,2.51933 -4.130522,3.97311 -3.407423,4.87414 -5.860005,10.31872 -8.044928,15.83405 -2.717345,7.76469 -4.840854,15.72215 -6.790619,23.71094 -0.601467,2.97822 -1.295389,6.24497 -1.763175,9.24698 -1.00724,6.46395 -1.537499,12.99847 -2.333898,19.48878 -1.177578,10.00028 -2.387079,20.00763 -2.945857,30.06597 -0.483005,7.97018 -0.939139,16.04367 0.709049,23.91985 1.004157,4.113 2.139473,9.95776 5.056047,13.16231 0.473406,0.52014 1.055036,0.93035 1.582555,1.39555 1.409964,0.78507 2.004303,1.25603 3.623543,1.5853 6.537213,1.32942 12.681034,-4.1838 17.624385,-7.01516 0.605139,-0.51774 1.248589,-0.99378 1.815412,-1.55319 4.058483,-4.00545 6.105374,-9.55781 8.036221,-14.78582 0.490723,-1.5769 1.043569,-3.13579 1.472165,-4.7307 2.782988,-10.35617 4.030266,-21.11686 4.060283,-31.823 -0.02876,-6.61917 0.05977,-8.81159 -0.369885,-15.4638 C 91.294108,189.86329 89.6608,178.08018 87.968716,166.34646 85.580534,151.93516 82.549711,137.63483 78.632017,123.55566 75.345329,110.76247 71.812779,98.039763 67.989669,85.395863 64.732323,74.591396 61.497844,63.775052 58.810379,52.811399 57.837411,48.959894 56.895422,45.10384 56.030275,41.226441 c -0.192188,-0.861349 -0.308364,-1.741544 -0.556898,-2.588353 -0.221271,-0.753914 -0.113302,-2.477119 -0.848236,-2.199235 -3.536571,1.337207 -6.36298,4.085868 -9.54447,6.1288 0.183864,5.108998 0.737568,10.205426 0.961996,15.313377 0.603284,9.590254 0.889767,19.200357 0.815057,28.810222 -0.136978,9.492221 -0.240422,19.006808 -1.361623,28.446348 -1.176623,8.52545 -2.773399,17.00421 -5.386268,25.22017 -1.099169,3.43455 -0.463778,1.52033 -1.55429,4.67255 -0.398237,1.15115 -1.474539,3.53481 -1.261078,4.79283 0.08139,0.4797 0.400539,0.88685 0.600808,1.33028 3.41871,-1.83008 6.868845,-3.60262 10.256131,-5.49022 0.354848,-0.19775 2.626884,-2.12193 2.63068,-2.1252 2.510071,-2.1627 4.911265,-4.44977 7.464515,-6.56319 4.571614,-3.97634 9.189141,-7.90208 13.857404,-11.76121 0,0 -10.371889,4.29618 -10.371889,4.29618 z"
       style="stroke-width:0.264583" />
  </g>
</svg>
